<svg id="Layer_1" data-name="Layer 1" xmlns="http://www.w3.org/2000/svg" viewBox="0 0 200 61.801"><title>donaki-logo-black</title><path d="M19.739,0a19.741,19.741,0,0,0-4.381,38.989l1.809,9.419L19.739,61.8l2.572-13.393,1.809-9.419A19.741,19.741,0,0,0,19.739,0Zm7.042,29.612-7.144-3.85-7.223,3.7,1.455-7.984L8.116,15.755l8.043-1.084,3.666-7.24,3.517,7.314L31.362,16l-5.87,5.6Z"/><polygon points="21.939 16.635 19.778 12.139 17.524 16.59 12.579 17.256 16.116 20.776 15.221 25.683 19.661 23.408 24.053 25.774 23.26 20.849 26.869 17.404 21.939 16.635"/><path d="M48.271,53.594H49.43v7.043h3.452v1.02h-4.61Z"/><path d="M55.213,53.938a.618.618,0,0,1-.217.509.829.829,0,0,1-.541.177.808.808,0,0,1-.536-.177.626.626,0,0,1-.211-.509.619.619,0,0,1,.211-.507.817.817,0,0,1,.536-.174.839.839,0,0,1,.541.174A.611.611,0,0,1,55.213,53.938Zm-1.355,1.741h1.158v5.977H53.858Z"/><path d="M56.566,53.043h1.159v5.311l2.421-2.675h1.378l-2.577,2.71,2.711,3.267H60.244L57.725,58.61v3.047H56.566Z"/><path d="M64.846,61.749q-3.279,0-3.278-3.2a2.84,2.84,0,0,1,.909-2.206,2.676,2.676,0,0,1,1.865-.753,2.2,2.2,0,0,1,1.784.765,2.872,2.872,0,0,1,.6,1.906v.452h-3.95a1.817,1.817,0,0,0,1.338,2,4.068,4.068,0,0,0,.982.086,4.773,4.773,0,0,0,1.3-.179V61.6A6.831,6.831,0,0,1,64.846,61.749Zm.718-3.892a1.452,1.452,0,0,0-.307-.938,1.209,1.209,0,0,0-.99-.44,1.453,1.453,0,0,0-1.083.423,1.32,1.32,0,0,0-.383.956Z"/><path d="M72.58,53.938a.618.618,0,0,1-.217.509.829.829,0,0,1-.541.177.808.808,0,0,1-.536-.177.626.626,0,0,1-.211-.509.619.619,0,0,1,.211-.507.817.817,0,0,1,.536-.174.839.839,0,0,1,.541.174A.611.611,0,0,1,72.58,53.938Zm-1.355,1.741h1.158v5.977H71.224Z"/><path d="M75.995,60.741a1.8,1.8,0,0,0,.579.07,1.952,1.952,0,0,0,.649-.093v.927a1.82,1.82,0,0,1-.354.035l-.365.011h-.185a1.907,1.907,0,0,1-1.651-.73A2.606,2.606,0,0,1,74.24,59.4V56.565h-.857v-.544l.857-.342.278-1.483h.88v1.483h1.854v.886H75.4v2.826Q75.4,60.527,75.995,60.741Z"/><path d="M82.111,57.764H86.05v.892H82.111Z"/><path d="M91.125,53.594h.741l2.873,3.3,2.861-3.3h.741v8.063H97.184v-6.14l-.342.464-2.1,2.45-2.1-2.445-.353-.463v6.134H91.125Z"/><path d="M102.515,61.749q-3.279,0-3.278-3.2a2.84,2.84,0,0,1,.909-2.206,2.676,2.676,0,0,1,1.865-.753,2.2,2.2,0,0,1,1.784.765,2.872,2.872,0,0,1,.6,1.906v.452h-3.95a1.817,1.817,0,0,0,1.338,2,4.068,4.068,0,0,0,.982.086,4.773,4.773,0,0,0,1.3-.179V61.6A6.831,6.831,0,0,1,102.515,61.749Zm.718-3.892a1.452,1.452,0,0,0-.307-.938,1.209,1.209,0,0,0-.99-.44,1.453,1.453,0,0,0-1.083.423,1.32,1.32,0,0,0-.383.956Z"/><path d="M106.486,57.167l.006,4.489h-1.158V55.679H106.4l.081.654a3.215,3.215,0,0,1,1.483-.695,2.824,2.824,0,0,1,.533-.052,1.788,1.788,0,0,1,1.633.915,3.113,3.113,0,0,1,2.108-.915,1.867,1.867,0,0,1,1.587.654,3.745,3.745,0,0,1,.5,2.2v3.215h-1.158V58.482q0-1.505-.724-1.8a1.512,1.512,0,0,0-.568-.1,2.141,2.141,0,0,0-1.425.556v4.518H109.29V58.436a2.537,2.537,0,0,0-.307-1.448,1.227,1.227,0,0,0-1.057-.405A2.17,2.17,0,0,0,106.486,57.167Z"/><path d="M115.438,58.656a3.045,3.045,0,0,1,.9-2.282,2.868,2.868,0,0,1,2.08-.817,2.763,2.763,0,0,1,2.033.817,3.087,3.087,0,0,1,.869,2.282,3.049,3.049,0,0,1-.875,2.271,2.774,2.774,0,0,1-2.033.822,2.874,2.874,0,0,1-2.073-.822A3.007,3.007,0,0,1,115.438,58.656Zm1.2,0a2.1,2.1,0,0,0,.95,2.016,1.644,1.644,0,0,0,.805.185,1.557,1.557,0,0,0,.794-.188,1.616,1.616,0,0,0,.533-.495,2.718,2.718,0,0,0,.388-1.518,2.133,2.133,0,0,0-.932-2.015,1.5,1.5,0,0,0-.776-.191,1.572,1.572,0,0,0-.785.188,1.645,1.645,0,0,0-.547.5A2.565,2.565,0,0,0,116.643,58.656Z"/><path d="M126.186,56.738a2.774,2.774,0,0,0-.762-.092,2.459,2.459,0,0,0-.727.089,2.379,2.379,0,0,0-.5.217,1.623,1.623,0,0,0-.574.521v4.182h-1.158V55.679h1.112l.046.828a2.6,2.6,0,0,1,1.268-.817,2.1,2.1,0,0,1,.689-.1,2.446,2.446,0,0,1,.6.058Z"/><path d="M128.321,53.938a.618.618,0,0,1-.217.509.829.829,0,0,1-.541.177.808.808,0,0,1-.536-.177.626.626,0,0,1-.211-.509.619.619,0,0,1,.211-.507.817.817,0,0,1,.536-.174.839.839,0,0,1,.541.174A.611.611,0,0,1,128.321,53.938Zm-1.355,1.741h1.158v5.977h-1.158Z"/><path d="M129.2,60.984l3.475-4.379h-3.261v-.926h4.744v.672l-3.527,4.379h3.655v.927H129.2Z"/><path d="M137.959,61.749q-3.279,0-3.278-3.2a2.84,2.84,0,0,1,.909-2.206,2.676,2.676,0,0,1,1.865-.753,2.2,2.2,0,0,1,1.784.765,2.872,2.872,0,0,1,.6,1.906v.452h-3.95a1.817,1.817,0,0,0,1.338,2,4.068,4.068,0,0,0,.982.086,4.773,4.773,0,0,0,1.3-.179V61.6A6.831,6.831,0,0,1,137.959,61.749Zm.718-3.892a1.452,1.452,0,0,0-.307-.938,1.209,1.209,0,0,0-.99-.44,1.453,1.453,0,0,0-1.083.423,1.32,1.32,0,0,0-.383.956Z"/><path d="M145.693,53.938a.618.618,0,0,1-.217.509.829.829,0,0,1-.541.177.808.808,0,0,1-.536-.177.626.626,0,0,1-.211-.509.619.619,0,0,1,.211-.507.817.817,0,0,1,.536-.174.839.839,0,0,1,.541.174A.611.611,0,0,1,145.693,53.938Zm-1.355,1.741H145.5v5.977h-1.158Z"/><path d="M149.108,60.741a1.8,1.8,0,0,0,.579.07,1.952,1.952,0,0,0,.649-.093v.927a1.82,1.82,0,0,1-.354.035l-.365.011h-.185a1.907,1.907,0,0,1-1.651-.73,2.606,2.606,0,0,1-.429-1.564V56.565H146.5v-.544l.857-.342.278-1.483h.88v1.483h1.854v.886h-1.854v2.826Q148.511,60.527,149.108,60.741Z"/><path d="M155.224,57.764h3.939v.892h-3.939Z"/><path d="M164.029,57.636a4.876,4.876,0,0,1,.284-1.709,3.833,3.833,0,0,1,.788-1.3,3.922,3.922,0,0,1,5.5,0,4.772,4.772,0,0,1,0,6.012,3.952,3.952,0,0,1-5.5,0A4.19,4.19,0,0,1,164.029,57.636Zm1.159-.006a3.556,3.556,0,0,0,.643,2.184,2.6,2.6,0,0,0,4.037,0,3.525,3.525,0,0,0,.637-2.172,3.6,3.6,0,0,0-.637-2.195,2.58,2.58,0,0,0-4.037,0A3.556,3.556,0,0,0,165.188,57.631Z"/><path d="M175.871,53.906a1.9,1.9,0,0,0-.579-.07,1.988,1.988,0,0,0-.588.07.807.807,0,0,0-.345.2,1.124,1.124,0,0,0-.22.776v.794h1.494v.886H174.14v5.091h-1.158V56.565h-.718v-.544l.718-.342v-.638a2.946,2.946,0,0,1,.107-.915,1.906,1.906,0,0,1,.258-.51,1.354,1.354,0,0,1,.405-.353,3.825,3.825,0,0,1,2.12-.272Z"/><path d="M179.477,53.906a1.9,1.9,0,0,0-.579-.07,1.988,1.988,0,0,0-.588.07.807.807,0,0,0-.345.2,1.124,1.124,0,0,0-.22.776v.794h1.494v.886h-1.494v5.091h-1.158V56.565h-.718v-.544l.718-.342v-.638a2.946,2.946,0,0,1,.107-.915,1.906,1.906,0,0,1,.258-.51,1.354,1.354,0,0,1,.405-.353,3.825,3.825,0,0,1,2.12-.272Z"/><path d="M182.84,61.749q-3.279,0-3.278-3.2a2.84,2.84,0,0,1,.909-2.206,2.676,2.676,0,0,1,1.865-.753,2.2,2.2,0,0,1,1.784.765,2.872,2.872,0,0,1,.6,1.906v.452h-3.95a1.817,1.817,0,0,0,1.338,2,4.068,4.068,0,0,0,.982.086,4.773,4.773,0,0,0,1.3-.179V61.6A6.831,6.831,0,0,1,182.84,61.749Zm.718-3.892a1.452,1.452,0,0,0-.307-.938,1.209,1.209,0,0,0-.99-.44,1.453,1.453,0,0,0-1.083.423,1.32,1.32,0,0,0-.383.956Z"/><path d="M189.429,56.738a2.774,2.774,0,0,0-.762-.092,2.459,2.459,0,0,0-.727.089,2.379,2.379,0,0,0-.5.217,1.623,1.623,0,0,0-.574.521v4.182h-1.158V55.679h1.112l.046.828a2.6,2.6,0,0,1,1.268-.817,2.1,2.1,0,0,1,.689-.1,2.446,2.446,0,0,1,.6.058Z"/><path d="M195.158,53.938a.618.618,0,0,1-.217.509.829.829,0,0,1-.541.177.808.808,0,0,1-.536-.177.626.626,0,0,1-.211-.509.619.619,0,0,1,.211-.507.817.817,0,0,1,.536-.174.839.839,0,0,1,.541.174A.611.611,0,0,1,195.158,53.938ZM193.8,55.679h1.158v5.977H193.8Z"/><path d="M198.573,60.741a1.8,1.8,0,0,0,.579.07,1.952,1.952,0,0,0,.649-.093v.927a1.82,1.82,0,0,1-.354.035l-.365.011H198.9a1.907,1.907,0,0,1-1.651-.73,2.606,2.606,0,0,1-.429-1.564V56.565h-.857v-.544l.857-.342L197.1,54.2h.88v1.483h1.854v.886h-1.854v2.826Q197.976,60.527,198.573,60.741Z"/><path d="M48.442,2.5H57.28q8.943,0,14.173,4.4Q77.1,11.6,77.1,20.624T71.61,34.33q-5.126,4.343-14.069,4.343h-9.1Zm23.3,18.153q0-13.966-14.8-13.966H53.672V34.512h3.556q11.3,0,13.755-8.114A20.324,20.324,0,0,0,71.741,20.65Z"/><path d="M80.221,25.2a13.627,13.627,0,0,1,4.053-10.247,12.976,12.976,0,0,1,9.388-3.667,12.492,12.492,0,0,1,9.178,3.667A13.813,13.813,0,0,1,106.763,25.2a13.646,13.646,0,0,1-3.949,10.2,12.559,12.559,0,0,1-9.178,3.693A13.011,13.011,0,0,1,84.274,35.4,13.458,13.458,0,0,1,80.221,25.2Zm5.439,0q0,6.659,4.289,9.051a7.444,7.444,0,0,0,3.635.832,7.056,7.056,0,0,0,3.582-.845,7.276,7.276,0,0,0,2.406-2.224,12.143,12.143,0,0,0,1.752-6.814q0-6.605-4.21-9.051a6.815,6.815,0,0,0-3.5-.858,7.113,7.113,0,0,0-3.544.846A7.413,7.413,0,0,0,87.6,18.361,11.463,11.463,0,0,0,85.661,25.2Z"/><path d="M123.3,15.891a10.289,10.289,0,0,0-6.93,2.627V38.674h-5.23V11.834h4.838l.366,2.913a14.166,14.166,0,0,1,8.812-3.329q4.811,0,7.061,2.861,2.353,3.017,2.354,9.727V38.674h-5.23V24.005q0-6.45-3.5-7.7A7.273,7.273,0,0,0,123.3,15.891Z"/><path d="M140.734,33.875q-.877-1.469-.876-1.469l-.51-2a21.816,21.816,0,0,1-.51-5.228,12.794,12.794,0,0,1,1.4-5.942,13.175,13.175,0,0,1,3.648-4.46,17.283,17.283,0,0,1,10.852-3.355q3.373,0,5.1.156l2.536.26v26.84h-4.707l-.209-3.095a9.249,9.249,0,0,1-4.785,3.095,8.3,8.3,0,0,1-2.524.39,12.548,12.548,0,0,1-2.55-.26,10.789,10.789,0,0,1-2.5-.858,10.222,10.222,0,0,1-2.367-1.6A10.4,10.4,0,0,1,140.734,33.875Zm16.409-18.218a26.984,26.984,0,0,0-3.334-.208,11.966,11.966,0,0,0-3.543.585,8.184,8.184,0,0,0-3.217,1.833q-2.772,2.6-2.772,7.933,0,5.046,2.38,7.464A5.935,5.935,0,0,0,151,35.058a6.909,6.909,0,0,0,5.387-2.367,5.343,5.343,0,0,0,.759-1.066Z"/><path d="M167.9,0h5.23V23.849l10.931-12.016h6.224L178.645,24.005l12.238,14.668H184.5l-11.375-13.68v13.68H167.9Z"/><path d="M194.77,11.834H200v26.84h-5.23Z"/><circle cx="197.385" cy="2.615" r="2.615"/></svg>